<svg version="1.1" id="Layer_1" xmlns="http://www.w3.org/2000/svg" xmlns:xlink="http://www.w3.org/1999/xlink" x="0px" y="0px"
	 width="100%" viewBox="0 0 560 528" enable-background="new 0 0 560 528" xml:space="preserve">
<path fill="#000000" opacity="1.000000" stroke="none" 
	d="
M405.111267,405.122101 
	C401.464203,409.130127 400.371124,413.921387 399.275879,418.566772 
	C398.262543,422.865021 400.543213,425.319519 405.198761,425.917847 
	C410.392639,426.585358 410.731049,426.745239 415.089752,430.740021 
	C408.509827,436.248657 400.791077,439.109131 392.702637,440.899719 
	C380.160156,443.676392 367.465820,445.376160 354.566650,445.411407 
	C332.234467,445.472473 309.884521,445.642700 287.600342,444.250458 
	C264.700836,442.819733 241.963531,439.908905 219.966934,432.824921 
	C212.516586,430.425537 210.402832,431.596191 207.373535,438.822601 
	C201.307617,453.292969 197.032379,468.318939 193.194443,483.496185 
	C191.661087,489.559937 187.318588,493.243561 182.117371,493.338196 
	C176.945831,493.432251 172.757950,490.181519 171.126862,484.831696 
	C170.474228,482.691132 170.655945,480.607544 171.165436,478.442627 
	C175.437988,460.287384 180.127167,442.233612 187.697754,425.141235 
	C190.812759,418.108429 190.137711,412.278748 186.829849,405.380707 
	C173.067444,376.681396 157.253632,349.051544 143.202881,320.517914 
	C136.150879,306.197052 129.157043,291.817566 125.599297,276.044525 
	C121.309540,257.026093 124.429527,238.785324 130.154602,220.594360 
	C135.711105,202.938995 147.632477,190.631683 162.441544,180.583344 
	C168.413651,176.531097 170.452545,176.930374 173.786774,183.326080 
	C178.325912,192.033051 182.189560,201.097839 186.858795,209.730148 
	C196.925232,228.340683 206.859756,247.012939 215.267990,266.440002 
	C222.460358,283.057831 222.090195,300.401764 220.043091,317.986481 
	C217.994247,335.586121 208.018509,348.324585 195.609909,359.640594 
	C192.361847,362.602600 191.451538,364.913910 193.919418,368.893402 
	C197.562790,374.768341 199.791458,381.477570 203.716507,387.128937 
	C206.766251,386.454285 207.386093,384.155365 208.404770,382.382782 
	C224.721375,353.990570 245.027756,328.785187 269.017639,306.542786 
	C274.999390,300.996735 281.373962,295.898895 287.984436,291.090210 
	C292.846863,287.553131 293.393005,285.329712 290.429230,280.128204 
	C278.930786,259.948059 272.352936,237.503113 261.275055,217.135544 
	C252.750809,201.463074 244.879623,185.467743 238.912842,168.632584 
	C231.413239,147.472610 232.958771,126.758781 242.986679,106.728302 
	C248.179382,96.356010 257.540955,90.023781 266.494080,83.367569 
	C268.227478,82.078880 270.214661,81.715759 271.902588,83.564026 
	C273.470856,85.281242 273.656036,86.984871 272.892944,89.448303 
	C269.897308,99.118790 266.096313,108.617920 265.863403,118.980354 
	C265.750824,123.990150 266.724762,128.651047 269.617126,132.710907 
	C272.738037,137.091568 273.458344,141.788788 272.538177,146.954361 
	C271.443787,153.097885 272.238708,159.000198 275.909729,164.150375 
	C278.396484,167.639114 281.509308,169.862274 286.099426,167.097946 
	C288.940216,165.387131 292.266510,165.845551 295.403809,165.999557 
	C298.781586,166.165390 300.248352,164.606766 300.650482,161.423721 
	C301.250153,156.677399 300.978394,151.916962 300.444489,147.088058 
	C303.369568,146.987289 303.674377,148.945358 304.263214,150.315536 
	C311.530426,167.226761 311.859680,184.232864 304.347290,201.123917 
	C301.230499,208.131714 297.290283,214.731155 292.206879,220.560547 
	C290.679077,222.312576 290.015350,224.072342 290.977112,226.477722 
	C296.112305,239.320557 301.243958,252.166122 308.052704,264.241089 
	C311.819214,270.920715 314.316193,271.141815 319.893616,265.724213 
	C344.825378,241.506577 361.470123,212.741013 368.196198,178.416107 
	C370.466370,166.831009 370.144714,155.455521 367.560913,143.969772 
	C364.780701,131.610748 366.089355,119.206093 368.032349,106.850136 
	C373.222198,73.846161 392.583038,49.999485 417.739532,29.904337 
	C420.021027,28.081852 422.876404,26.152224 425.151123,29.177362 
	C427.364990,32.121544 429.532227,35.666389 426.723358,39.663979 
	C417.417542,52.907887 409.421814,66.901695 402.688538,81.622925 
	C400.410339,86.603821 399.358398,91.803490 400.239532,97.197952 
	C401.015533,101.949028 402.719299,106.522675 408.046509,107.755623 
	C413.516296,109.021568 418.143768,107.563950 421.384125,102.400734 
	C423.853455,98.466133 426.854370,94.862984 429.652893,91.138008 
	C431.179810,89.105637 433.110046,87.599403 436.137543,86.514969 
	C437.896881,91.207344 437.388977,95.773811 436.828339,100.267349 
	C433.245972,128.980621 418.276703,151.158920 396.638092,169.327377 
	C392.924683,172.445251 390.992432,175.854935 390.272614,180.589371 
	C385.978668,208.831696 374.612396,234.119965 357.571014,256.903015 
	C351.482605,265.042755 344.930695,272.823608 337.620667,279.932251 
	C336.466339,281.054779 335.002106,282.049133 334.756653,284.144196 
	C337.633820,288.066437 342.363159,286.771820 346.170135,287.389465 
	C352.524628,288.420441 359.078278,288.170624 365.533630,288.653229 
	C369.339142,288.937653 371.803253,287.657562 373.397491,284.047638 
	C380.241821,268.549438 391.944489,257.948639 407.073242,250.714035 
	C416.573273,246.171112 426.524017,244.183884 436.973633,244.111725 
	C457.471680,243.970215 477.969147,243.749939 498.466980,243.581543 
	C504.628845,243.530914 505.921234,244.788605 505.375000,250.885513 
	C502.520020,282.750580 481.793884,304.610687 449.418640,310.260956 
	C433.579620,313.025238 417.605377,312.605347 401.609314,312.513489 
	C381.150604,312.396057 360.712646,312.240631 340.424164,309.325409 
	C331.400940,308.028900 322.448914,306.231140 313.473175,304.613281 
	C311.067474,304.179657 308.916260,304.416748 306.839172,305.878754 
	C279.081573,325.416321 256.259369,349.616821 238.474747,378.509094 
	C233.501373,386.588654 229.022675,394.975342 224.404160,403.269623 
	C221.844070,407.867218 222.485992,409.650116 227.410843,411.490570 
	C235.385956,414.470978 243.709915,416.153809 252.062225,417.624481 
	C258.100159,418.687561 264.203888,419.371674 270.255585,420.363220 
	C274.918213,421.127136 276.819092,418.293152 278.344238,414.667236 
	C283.244690,403.016724 289.784760,392.395355 299.255035,383.923645 
	C318.740356,366.493042 341.476074,356.778534 367.823242,357.185974 
	C393.302002,357.579956 418.804840,357.091888 444.258240,358.764435 
	C445.421478,358.840881 446.588043,358.917358 447.742188,359.073853 
	C454.521271,359.992981 456.432617,362.175720 455.588440,369.139801 
	C454.604401,377.257843 452.265656,385.078064 449.067566,392.605499 
	C444.748962,402.770203 439.947296,412.654480 431.466736,420.166748 
	C429.006592,422.346008 426.593658,424.633789 423.423889,425.470398 
	C422.540375,424.745880 422.498749,423.922028 422.932861,423.486328 
	C428.926941,417.470734 425.253937,411.322174 422.692383,405.652557 
	C421.185852,402.318115 421.489838,400.375641 423.580475,397.638153 
	C427.058258,393.084381 431.078705,389.162598 435.506195,385.615814 
	C438.028931,383.594971 439.705750,380.996399 441.816864,377.948669 
	C436.810425,374.454071 431.691010,373.570557 426.506653,375.426331 
	C417.084412,378.799011 409.487091,384.229340 406.513489,394.630615 
	C405.533997,398.056824 407.729919,401.688232 405.111267,405.122101 
M156.857666,256.350220 
	C157.153198,257.302246 157.298264,258.336517 157.766876,259.193939 
	C164.632706,271.756592 170.582977,284.722229 175.706802,298.102142 
	C177.720947,303.361725 185.936203,303.747803 189.913940,298.931366 
	C191.898987,296.527771 194.200180,294.844025 196.965088,293.579712 
	C205.158813,289.832916 207.572067,285.131683 205.167969,276.341858 
	C203.420425,269.952545 201.506073,263.593323 198.417786,257.626465 
	C194.366455,249.798828 190.712814,241.765564 188.554245,233.161896 
	C186.621811,225.459625 186.117554,217.401443 182.352814,210.150314 
	C181.109116,207.754883 179.596634,206.155350 177.112015,205.220062 
	C169.939362,202.520050 162.755371,205.737427 160.042755,213.656677 
	C155.378769,227.272781 155.458984,241.381836 156.857666,256.350220 
z"/>
</svg>